<mxfile host="app.diagrams.net" agent="Mozilla/5.0 (Windows NT 10.0; Win64; x64) AppleWebKit/537.36 (KHTML, like Gecko) Chrome/137.0.0.0 Safari/537.36" version="27.1.4">
  <diagram name="Page-1" id="Aekc2kSoGCSQNtCucTmB">
    <mxGraphModel dx="1342" dy="728" grid="0" gridSize="1" guides="1" tooltips="1" connect="0" arrows="0" fold="1" page="1" pageScale="1" pageWidth="850" pageHeight="1100" math="0" shadow="0">
      <root>
        <mxCell id="0" />
        <mxCell id="1" parent="0" />
        <mxCell id="SF5xmufkMhCxNSbuVgOZ-1" value="" style="ellipse;whiteSpace=wrap;html=1;" parent="1" vertex="1">
          <mxGeometry x="86" y="346" width="190" height="150" as="geometry" />
        </mxCell>
        <mxCell id="SF5xmufkMhCxNSbuVgOZ-2" value="" style="ellipse;whiteSpace=wrap;html=1;" parent="1" vertex="1">
          <mxGeometry x="328" y="346" width="190" height="150" as="geometry" />
        </mxCell>
        <mxCell id="SF5xmufkMhCxNSbuVgOZ-3" value="" style="ellipse;whiteSpace=wrap;html=1;" parent="1" vertex="1">
          <mxGeometry x="577" y="346" width="180" height="150" as="geometry" />
        </mxCell>
        <mxCell id="1UF0MUQRRNph1ceyEpth-7" value="&#xa;&lt;h3 style=&quot;margin: 0px; padding: 0px; box-sizing: border-box; color: rgb(51, 51, 51); font-family: Arial, sans-serif; font-style: normal; font-variant-ligatures: normal; font-variant-caps: normal; letter-spacing: normal; orphans: 2; text-align: start; text-indent: 0px; text-transform: none; widows: 2; word-spacing: 0px; -webkit-text-stroke-width: 0px; white-space: normal; background-color: rgb(244, 244, 249); text-decoration-thickness: initial; text-decoration-style: initial; text-decoration-color: initial;&quot;&gt;Find Us Here:&lt;/h3&gt;&#xa;&#xa;" style="text;strokeColor=none;align=center;fillColor=none;html=1;verticalAlign=middle;whiteSpace=wrap;rounded=0;labelBorderColor=none;fontStyle=0" vertex="1" parent="1">
          <mxGeometry y="206" width="220" height="26" as="geometry" />
        </mxCell>
        <mxCell id="1UF0MUQRRNph1ceyEpth-9" value="Home" style="text;strokeColor=none;align=center;fillColor=none;verticalAlign=middle;rounded=0;labelBorderColor=default;fontStyle=1;html=1;whiteSpace=wrap;labelBackgroundColor=none;" vertex="1" parent="1">
          <mxGeometry x="517" y="10" width="68" height="32" as="geometry" />
        </mxCell>
        <UserObject label="&#xa;&lt;p style=&quot;margin: 0px; padding: 6px; box-sizing: border-box; color: rgb(51, 51, 51); font-family: Arial, sans-serif; font-size: medium; font-style: normal; font-variant-ligatures: normal; font-variant-caps: normal; font-weight: 400; letter-spacing: normal; orphans: 2; text-align: start; text-indent: 0px; text-transform: none; widows: 2; word-spacing: 0px; -webkit-text-stroke-width: 0px; white-space: normal; background-color: rgb(244, 244, 249); text-decoration-thickness: initial; text-decoration-style: initial; text-decoration-color: initial;&quot;&gt;&lt;strong style=&quot;margin: 0px; padding: 0px; box-sizing: border-box;&quot;&gt;Address:&lt;/strong&gt;&lt;span&gt;&amp;nbsp;&lt;/span&gt;12 ogunu road, warri, Delta state&lt;/p&gt;&lt;p style=&quot;margin: 0px; padding: 6px; box-sizing: border-box; color: rgb(51, 51, 51); font-family: Arial, sans-serif; font-size: medium; font-style: normal; font-variant-ligatures: normal; font-variant-caps: normal; font-weight: 400; letter-spacing: normal; orphans: 2; text-align: start; text-indent: 0px; text-transform: none; widows: 2; word-spacing: 0px; -webkit-text-stroke-width: 0px; white-space: normal; background-color: rgb(244, 244, 249); text-decoration-thickness: initial; text-decoration-style: initial; text-decoration-color: initial;&quot;&gt;&lt;strong style=&quot;margin: 0px; padding: 0px; box-sizing: border-box;&quot;&gt;Phone:&lt;/strong&gt;&lt;span&gt;&amp;nbsp;&lt;/span&gt;(+234)(8141509925)&lt;/p&gt;&lt;p style=&quot;margin: 0px; padding: 6px; box-sizing: border-box; color: rgb(51, 51, 51); font-family: Arial, sans-serif; font-size: medium; font-style: normal; font-variant-ligatures: normal; font-variant-caps: normal; font-weight: 400; letter-spacing: normal; orphans: 2; text-align: start; text-indent: 0px; text-transform: none; widows: 2; word-spacing: 0px; -webkit-text-stroke-width: 0px; white-space: normal; background-color: rgb(244, 244, 249); text-decoration-thickness: initial; text-decoration-style: initial; text-decoration-color: initial;&quot;&gt;&lt;strong style=&quot;margin: 0px; padding: 0px; box-sizing: border-box;&quot;&gt;Email:&lt;/strong&gt;&lt;span&gt;&amp;nbsp;&lt;/span&gt;peaceoyovwe@riverrafting.com&lt;/p&gt;&#xa;&#xa;" link="&#xa;&lt;p style=&quot;margin: 0px; padding: 6px; box-sizing: border-box; color: rgb(51, 51, 51); font-family: Arial, sans-serif; font-size: medium; font-style: normal; font-variant-ligatures: normal; font-variant-caps: normal; font-weight: 400; letter-spacing: normal; orphans: 2; text-align: start; text-indent: 0px; text-transform: none; widows: 2; word-spacing: 0px; -webkit-text-stroke-width: 0px; white-space: normal; background-color: rgb(244, 244, 249); text-decoration-thickness: initial; text-decoration-style: initial; text-decoration-color: initial;&quot;&gt;&lt;strong style=&quot;margin: 0px; padding: 0px; box-sizing: border-box;&quot;&gt;Address:&lt;/strong&gt;&lt;span&gt;&amp;nbsp;&lt;/span&gt;12 ogunu road, warri, Delta state&lt;/p&gt;&lt;p style=&quot;margin: 0px; padding: 6px; box-sizing: border-box; color: rgb(51, 51, 51); font-family: Arial, sans-serif; font-size: medium; font-style: normal; font-variant-ligatures: normal; font-variant-caps: normal; font-weight: 400; letter-spacing: normal; orphans: 2; text-align: start; text-indent: 0px; text-transform: none; widows: 2; word-spacing: 0px; -webkit-text-stroke-width: 0px; white-space: normal; background-color: rgb(244, 244, 249); text-decoration-thickness: initial; text-decoration-style: initial; text-decoration-color: initial;&quot;&gt;&lt;strong style=&quot;margin: 0px; padding: 0px; box-sizing: border-box;&quot;&gt;Phone:&lt;/strong&gt;&lt;span&gt;&amp;nbsp;&lt;/span&gt;(+234)(8141509925)&lt;/p&gt;&lt;p style=&quot;margin: 0px; padding: 6px; box-sizing: border-box; color: rgb(51, 51, 51); font-family: Arial, sans-serif; font-size: medium; font-style: normal; font-variant-ligatures: normal; font-variant-caps: normal; font-weight: 400; letter-spacing: normal; orphans: 2; text-align: start; text-indent: 0px; text-transform: none; widows: 2; word-spacing: 0px; -webkit-text-stroke-width: 0px; white-space: normal; background-color: rgb(244, 244, 249); text-decoration-thickness: initial; text-decoration-style: initial; text-decoration-color: initial;&quot;&gt;&lt;strong style=&quot;margin: 0px; padding: 0px; box-sizing: border-box;&quot;&gt;Email:&lt;/strong&gt;&lt;span&gt;&amp;nbsp;&lt;/span&gt;peaceoyovwe@riverrafting.com&lt;/p&gt;&#xa;&#xa;" id="1UF0MUQRRNph1ceyEpth-10">
          <mxCell style="text;strokeColor=none;align=center;fillColor=none;html=1;verticalAlign=middle;whiteSpace=wrap;rounded=0;labelBorderColor=none;fontStyle=1" vertex="1" parent="1">
            <mxGeometry x="25" y="60" width="365" height="140" as="geometry" />
          </mxCell>
        </UserObject>
        <mxCell id="1UF0MUQRRNph1ceyEpth-13" value="&lt;label for=&quot;fullname&quot; style=&quot;margin: 1rem 0px 0px; padding: 0px; box-sizing: border-box; display: block; font-weight: bold; color: rgb(51, 51, 51); font-family: Arial, sans-serif; font-size: medium; font-style: normal; font-variant-ligatures: normal; font-variant-caps: normal; letter-spacing: normal; orphans: 2; text-align: start; text-indent: 0px; text-transform: none; widows: 2; word-spacing: 0px; -webkit-text-stroke-width: 0px; white-space: normal; text-decoration-thickness: initial; text-decoration-style: initial; text-decoration-color: initial;&quot;&gt;Full Name:&lt;/label&gt;&lt;input type=&quot;text&quot; id=&quot;fullname&quot; name=&quot;fullname&quot; required=&quot;&quot; style=&quot;margin: 0.25rem 0px 0px; padding: 0.5rem; box-sizing: border-box; width: 436px; border: 1px solid rgb(204, 204, 204); border-radius: 5px; orphans: 2; widows: 2; -webkit-text-stroke-width: 0px; white-space: normal; text-decoration-thickness: initial; text-decoration-style: initial; text-decoration-color: initial;&quot;&gt;&lt;span style=&quot;color: rgb(51, 51, 51); font-family: Arial, sans-serif; font-size: medium; font-style: normal; font-variant-ligatures: normal; font-variant-caps: normal; font-weight: 400; letter-spacing: normal; orphans: 2; text-align: start; text-indent: 0px; text-transform: none; widows: 2; word-spacing: 0px; -webkit-text-stroke-width: 0px; white-space: normal; background-color: rgb(255, 255, 255); text-decoration-thickness: initial; text-decoration-style: initial; text-decoration-color: initial; display: inline !important; float: none;&quot;&gt;&lt;/span&gt;&lt;label for=&quot;email&quot; style=&quot;margin: 1rem 0px 0px; padding: 0px; box-sizing: border-box; display: block; font-weight: bold; color: rgb(51, 51, 51); font-family: Arial, sans-serif; font-size: medium; font-style: normal; font-variant-ligatures: normal; font-variant-caps: normal; letter-spacing: normal; orphans: 2; text-align: start; text-indent: 0px; text-transform: none; widows: 2; word-spacing: 0px; -webkit-text-stroke-width: 0px; white-space: normal; text-decoration-thickness: initial; text-decoration-style: initial; text-decoration-color: initial;&quot;&gt;Email Address:&lt;/label&gt;&lt;input type=&quot;email&quot; id=&quot;email&quot; name=&quot;email&quot; required=&quot;&quot; style=&quot;margin: 0.25rem 0px 0px; padding: 0.5rem; box-sizing: border-box; width: 436px; border: 1px solid rgb(204, 204, 204); border-radius: 5px; orphans: 2; widows: 2; -webkit-text-stroke-width: 0px; white-space: normal; text-decoration-thickness: initial; text-decoration-style: initial; text-decoration-color: initial;&quot;&gt;&lt;span style=&quot;color: rgb(51, 51, 51); font-family: Arial, sans-serif; font-size: medium; font-style: normal; font-variant-ligatures: normal; font-variant-caps: normal; font-weight: 400; letter-spacing: normal; orphans: 2; text-align: start; text-indent: 0px; text-transform: none; widows: 2; word-spacing: 0px; -webkit-text-stroke-width: 0px; white-space: normal; background-color: rgb(255, 255, 255); text-decoration-thickness: initial; text-decoration-style: initial; text-decoration-color: initial; display: inline !important; float: none;&quot;&gt;&lt;/span&gt;&lt;label for=&quot;subject&quot; style=&quot;margin: 1rem 0px 0px; padding: 0px; box-sizing: border-box; display: block; font-weight: bold; color: rgb(51, 51, 51); font-family: Arial, sans-serif; font-size: medium; font-style: normal; font-variant-ligatures: normal; font-variant-caps: normal; letter-spacing: normal; orphans: 2; text-align: start; text-indent: 0px; text-transform: none; widows: 2; word-spacing: 0px; -webkit-text-stroke-width: 0px; white-space: normal; text-decoration-thickness: initial; text-decoration-style: initial; text-decoration-color: initial;&quot;&gt;Subject:&lt;/label&gt;&lt;input type=&quot;text&quot; id=&quot;subject&quot; name=&quot;subject&quot; style=&quot;margin: 0.25rem 0px 0px; padding: 0.5rem; box-sizing: border-box; width: 436px; border: 1px solid rgb(204, 204, 204); border-radius: 5px; orphans: 2; widows: 2; -webkit-text-stroke-width: 0px; white-space: normal; text-decoration-thickness: initial; text-decoration-style: initial; text-decoration-color: initial;&quot;&gt;&lt;span style=&quot;color: rgb(51, 51, 51); font-family: Arial, sans-serif; font-size: medium; font-style: normal; font-variant-ligatures: normal; font-variant-caps: normal; font-weight: 400; letter-spacing: normal; orphans: 2; text-align: start; text-indent: 0px; text-transform: none; widows: 2; word-spacing: 0px; -webkit-text-stroke-width: 0px; white-space: normal; background-color: rgb(255, 255, 255); text-decoration-thickness: initial; text-decoration-style: initial; text-decoration-color: initial; display: inline !important; float: none;&quot;&gt;&lt;/span&gt;&lt;label for=&quot;message&quot; style=&quot;margin: 1rem 0px 0px; padding: 0px; box-sizing: border-box; display: block; font-weight: bold; color: rgb(51, 51, 51); font-family: Arial, sans-serif; font-size: medium; font-style: normal; font-variant-ligatures: normal; font-variant-caps: normal; letter-spacing: normal; orphans: 2; text-align: start; text-indent: 0px; text-transform: none; widows: 2; word-spacing: 0px; -webkit-text-stroke-width: 0px; white-space: normal; text-decoration-thickness: initial; text-decoration-style: initial; text-decoration-color: initial;&quot;&gt;Your Message:&lt;/label&gt;&lt;textarea id=&quot;message&quot; name=&quot;message&quot; rows=&quot;5&quot; required=&quot;&quot; style=&quot;margin: 0.25rem 0px 0px; padding: 0.5rem; box-sizing: border-box; width: 436px; border: 1px solid rgb(204, 204, 204); border-radius: 5px; orphans: 2; widows: 2; -webkit-text-stroke-width: 0px; text-decoration-thickness: initial; text-decoration-style: initial; text-decoration-color: initial;&quot;&gt;&lt;/textarea&gt;&lt;span style=&quot;color: rgb(51, 51, 51); font-family: Arial, sans-serif; font-size: medium; font-style: normal; font-variant-ligatures: normal; font-variant-caps: normal; font-weight: 400; letter-spacing: normal; orphans: 2; text-align: start; text-indent: 0px; text-transform: none; widows: 2; word-spacing: 0px; -webkit-text-stroke-width: 0px; white-space: normal; background-color: rgb(255, 255, 255); text-decoration-thickness: initial; text-decoration-style: initial; text-decoration-color: initial; display: inline !important; float: none;&quot;&gt;&lt;/span&gt;&lt;label class=&quot;newsletter&quot; style=&quot;margin: 1em 0px 0px; padding: 0px; box-sizing: border-box; display: flex; font-weight: bold; align-items: center; gap: 0.5em; color: rgb(51, 51, 51); font-family: Arial, sans-serif; font-size: medium; font-style: normal; font-variant-ligatures: normal; font-variant-caps: normal; letter-spacing: normal; orphans: 2; text-align: start; text-indent: 0px; text-transform: none; widows: 2; word-spacing: 0px; -webkit-text-stroke-width: 0px; white-space: normal; text-decoration-thickness: initial; text-decoration-style: initial; text-decoration-color: initial;&quot;&gt;&lt;input type=&quot;checkbox&quot; name=&quot;subscribe&quot; style=&quot;margin: 0px; padding: 0px; box-sizing: border-box;&quot;&gt;Please subscribe me to the monthly newsletter&lt;/label&gt;&lt;button type=&quot;submit&quot; class=&quot;submit-button&quot; style=&quot;margin: 1.5rem 0px 0px; padding: 0.75rem 1.5rem; box-sizing: border-box; background-color: rgb(76, 175, 80); color: white; border: none; font-size: 1rem; border-radius: 5px; cursor: pointer; orphans: 2; widows: 2; -webkit-text-stroke-width: 0px; white-space: normal; text-decoration-thickness: initial; text-decoration-style: initial; text-decoration-color: initial;&quot;&gt;Send Message&lt;/button&gt;" style="text;whiteSpace=wrap;html=1;" vertex="1" parent="1">
          <mxGeometry x="188" y="538" width="464" height="479" as="geometry" />
        </mxCell>
        <mxCell id="1UF0MUQRRNph1ceyEpth-17" value="&lt;span style=&quot;color: rgb(51, 51, 51); font-family: Arial, sans-serif; font-size: 14.4px; font-style: normal; font-variant-ligatures: normal; font-variant-caps: normal; font-weight: 500; letter-spacing: normal; orphans: 2; text-align: center; text-indent: 0px; text-transform: none; widows: 2; word-spacing: 0px; -webkit-text-stroke-width: 0px; white-space: normal; background-color: rgb(244, 244, 249); text-decoration-thickness: initial; text-decoration-style: initial; text-decoration-color: initial; display: inline !important; float: none;&quot;&gt;John Smith - Guide&lt;/span&gt;" style="text;whiteSpace=wrap;html=1;" vertex="1" parent="1">
          <mxGeometry x="115" y="508.0038461538462" width="142" height="30" as="geometry" />
        </mxCell>
        <mxCell id="1UF0MUQRRNph1ceyEpth-18" value="&lt;span style=&quot;color: rgb(51, 51, 51); font-family: Arial, sans-serif; font-size: 14.4px; font-style: normal; font-variant-ligatures: normal; font-variant-caps: normal; font-weight: 500; letter-spacing: normal; orphans: 2; text-align: center; text-indent: 0px; text-transform: none; widows: 2; word-spacing: 0px; -webkit-text-stroke-width: 0px; white-space: normal; background-color: rgb(244, 244, 249); text-decoration-thickness: initial; text-decoration-style: initial; text-decoration-color: initial; display: inline !important; float: none;&quot;&gt;Mike John - project manager&lt;/span&gt;" style="text;whiteSpace=wrap;html=1;" vertex="1" parent="1">
          <mxGeometry x="328" y="506" width="189" height="30" as="geometry" />
        </mxCell>
        <mxCell id="1UF0MUQRRNph1ceyEpth-19" value="&lt;span style=&quot;color: rgb(51, 51, 51); font-family: Arial, sans-serif; font-size: 14.4px; font-style: normal; font-variant-ligatures: normal; font-variant-caps: normal; font-weight: 500; letter-spacing: normal; orphans: 2; text-align: center; text-indent: 0px; text-transform: none; widows: 2; word-spacing: 0px; -webkit-text-stroke-width: 0px; white-space: normal; background-color: rgb(244, 244, 249); text-decoration-thickness: initial; text-decoration-style: initial; text-decoration-color: initial; display: inline !important; float: none;&quot;&gt;Sarah Lee - Customer Support&lt;/span&gt;" style="text;whiteSpace=wrap;html=1;" vertex="1" parent="1">
          <mxGeometry x="577.0046153846152" y="506.00076923076927" width="215" height="30" as="geometry" />
        </mxCell>
        <mxCell id="1UF0MUQRRNph1ceyEpth-20" value="" style="rounded=0;whiteSpace=wrap;html=1;" vertex="1" parent="1">
          <mxGeometry x="61" y="223" width="142" height="85" as="geometry" />
        </mxCell>
        <mxCell id="1UF0MUQRRNph1ceyEpth-21" value="About Us" style="text;strokeColor=none;align=center;fillColor=none;verticalAlign=middle;rounded=0;labelBorderColor=default;fontStyle=1;html=1;whiteSpace=wrap;labelBackgroundColor=none;" vertex="1" parent="1">
          <mxGeometry x="596" y="10" width="68" height="32" as="geometry" />
        </mxCell>
        <mxCell id="1UF0MUQRRNph1ceyEpth-22" value="Trips" style="text;strokeColor=none;align=center;fillColor=none;verticalAlign=middle;rounded=0;labelBorderColor=default;fontStyle=1;html=1;whiteSpace=wrap;labelBackgroundColor=none;" vertex="1" parent="1">
          <mxGeometry x="667" y="10" width="68" height="32" as="geometry" />
        </mxCell>
        <mxCell id="1UF0MUQRRNph1ceyEpth-23" value="Contact Us" style="text;strokeColor=none;align=center;fillColor=none;verticalAlign=middle;rounded=0;labelBorderColor=default;fontStyle=1;html=1;whiteSpace=wrap;labelBackgroundColor=none;" vertex="1" parent="1">
          <mxGeometry x="743" y="9" width="68" height="32" as="geometry" />
        </mxCell>
        <mxCell id="1UF0MUQRRNph1ceyEpth-24" value="" style="rounded=0;whiteSpace=wrap;html=1;" vertex="1" parent="1">
          <mxGeometry x="40" y="5" width="114" height="40" as="geometry" />
        </mxCell>
      </root>
    </mxGraphModel>
  </diagram>
</mxfile>
